<svg xmlns="http://www.w3.org/2000/svg" xmlns:xlink="http://www.w3.org/1999/xlink" width="40" zoomAndPan="magnify" viewBox="0 0 30 30.000001" height="40" preserveAspectRatio="xMidYMid meet" version="1.0"><defs><g/><clipPath id="id1"><path d="M 0.484375 0 L 29.515625 0 L 29.515625 29.03125 L 0.484375 29.03125 Z M 0.484375 0 " clip-rule="nonzero"/></clipPath></defs><g clip-path="url(#id1)"><path fill="#ffffff" d="M 0.484375 0 L 29.515625 0 L 29.515625 36.289062 L 0.484375 36.289062 Z M 0.484375 0 " fill-opacity="1" fill-rule="nonzero"/><path fill="#ffffff" d="M 0.484375 0 L 29.515625 0 L 29.515625 29.03125 L 0.484375 29.03125 Z M 0.484375 0 " fill-opacity="1" fill-rule="nonzero"/><path fill="#5cfff7" d="M 0.484375 0 L 29.515625 0 L 29.515625 29.03125 L 0.484375 29.03125 Z M 0.484375 0 " fill-opacity="1" fill-rule="nonzero"/></g><g fill="#000000" fill-opacity="1"><g transform="translate(8.328817, 25.861484)"><g><path d="M 13 0 L 9.359375 0 L 8.734375 -4.171875 L 4.296875 -4.171875 L 3.671875 0 L 0.359375 0 L 4.03125 -22.984375 L 9.328125 -22.984375 Z M 4.765625 -7.28125 L 8.234375 -7.28125 L 6.5 -18.90625 Z M 4.765625 -7.28125 "/></g></g></g><g fill="#000000" fill-opacity="1"><g transform="translate(6.050755, 8.041303)"><g><path d="M 17.046875 4.515625 C 17.046875 5.796875 16.660156 6.738281 15.890625 7.34375 C 15.128906 7.957031 14.109375 8.265625 12.828125 8.265625 L 12.375 8.265625 L 12.375 6.484375 L 12.921875 6.484375 C 13.691406 6.484375 14.285156 6.328125 14.703125 6.015625 C 15.117188 5.710938 15.328125 5.226562 15.328125 4.5625 C 15.328125 3.882812 15.117188 3.390625 14.703125 3.078125 C 14.285156 2.773438 13.703125 2.625 12.953125 2.625 C 12.316406 2.625 11.765625 2.765625 11.296875 3.046875 C 10.835938 3.328125 10.410156 3.675781 10.015625 4.09375 C 9.617188 4.507812 9.234375 4.960938 8.859375 5.453125 C 8.484375 5.953125 8.066406 6.410156 7.609375 6.828125 C 7.160156 7.242188 6.648438 7.59375 6.078125 7.875 C 5.515625 8.15625 4.835938 8.296875 4.046875 8.296875 C 2.765625 8.296875 1.738281 7.984375 0.96875 7.359375 C 0.207031 6.742188 -0.171875 5.785156 -0.171875 4.484375 C -0.171875 3.179688 0.207031 2.222656 0.96875 1.609375 C 1.738281 1.003906 2.765625 0.703125 4.046875 0.703125 L 5.015625 0.703125 L 5.015625 2.453125 L 3.953125 2.453125 C 3.179688 2.453125 2.585938 2.613281 2.171875 2.9375 C 1.753906 3.257812 1.546875 3.757812 1.546875 4.4375 C 1.546875 5.113281 1.753906 5.609375 2.171875 5.921875 C 2.585938 6.242188 3.179688 6.40625 3.953125 6.40625 C 4.578125 6.40625 5.117188 6.265625 5.578125 5.984375 C 6.035156 5.703125 6.460938 5.351562 6.859375 4.9375 C 7.253906 4.519531 7.640625 4.070312 8.015625 3.59375 C 8.390625 3.113281 8.800781 2.660156 9.25 2.234375 C 9.707031 1.816406 10.21875 1.46875 10.78125 1.1875 C 11.351562 0.90625 12.035156 0.765625 12.828125 0.765625 C 14.128906 0.765625 15.15625 1.070312 15.90625 1.6875 C 16.664062 2.300781 17.046875 3.242188 17.046875 4.515625 Z M 17.046875 4.515625 "/></g></g></g></svg>